<svg xmlns="http://www.w3.org/2000/svg" xmlns:xlink="http://www.w3.org/1999/xlink" contentStyleType="text/css" height="571px" preserveAspectRatio="none" style="width:444px;height:571px;background:#FFFFFF;" version="1.1" viewBox="0 0 444 571" width="444px" zoomAndPan="magnify"><defs/><g><!--class user--><g id="elem_user"><rect codeLine="1" fill="#F1F1F1" height="194.6719" id="user" rx="2.5" ry="2.5" style="stroke:#181818;stroke-width:0.5;" width="430.9609" x="7" y="7"/><ellipse cx="202.2754" cy="23" fill="#ADD1B2" rx="11" ry="11" style="stroke:#181818;stroke-width:1;"/><path d="M206.3848,29 L198.666,29 L198.666,16.6094 L206.3848,16.6094 L206.3848,18.7656 L201.1191,18.7656 L201.1191,21.4375 L205.8848,21.4375 L205.8848,23.5938 L201.1191,23.5938 L201.1191,26.8438 L206.3848,26.8438 L206.3848,29 Z " fill="#000000"/><text fill="#000000" font-family="sans-serif" font-size="14" lengthAdjust="spacing" textLength="31.9102" x="222.7754" y="27.8467">User</text><line style="stroke:#181818;stroke-width:0.5;" x1="8" x2="436.9609" y1="39" y2="39"/><ellipse cx="18" cy="52.6484" fill="none" rx="3" ry="3" style="stroke:#038048;stroke-width:1;"/><text fill="#000000" font-family="sans-serif" font-size="14" lengthAdjust="spacing" textLength="92.0049" x="27" y="55.9951">_id : ObjectId</text><ellipse cx="18" cy="68.9453" fill="none" rx="3" ry="3" style="stroke:#038048;stroke-width:1;"/><text fill="#000000" font-family="sans-serif" font-size="14" lengthAdjust="spacing" textLength="93.5088" x="27" y="72.292">name : string</text><ellipse cx="18" cy="85.2422" fill="none" rx="3" ry="3" style="stroke:#038048;stroke-width:1;"/><text fill="#000000" font-family="sans-serif" font-size="14" lengthAdjust="spacing" textLength="115.4316" x="27" y="88.5889">surname : string</text><ellipse cx="18" cy="101.5391" fill="none" rx="3" ry="3" style="stroke:#038048;stroke-width:1;"/><text fill="#000000" font-family="sans-serif" font-size="14" lengthAdjust="spacing" textLength="92.415" x="27" y="104.8857">email : string</text><ellipse cx="18" cy="117.8359" fill="none" rx="3" ry="3" style="stroke:#038048;stroke-width:1;"/><text fill="#000000" font-family="sans-serif" font-size="14" lengthAdjust="spacing" textLength="120.5176" x="27" y="121.1826">password : string</text><ellipse cx="18" cy="134.1328" fill="none" rx="3" ry="3" style="stroke:#038048;stroke-width:1;"/><text fill="#000000" font-family="sans-serif" font-size="14" lengthAdjust="spacing" textLength="157.876" x="27" y="137.4795">mainLanguage : string</text><ellipse cx="18" cy="150.4297" fill="none" rx="3" ry="3" style="stroke:#038048;stroke-width:1;"/><text fill="#000000" font-family="sans-serif" font-size="14" lengthAdjust="spacing" textLength="80.6299" x="27" y="153.7764">role : string</text><ellipse cx="18" cy="166.7266" fill="none" rx="3" ry="3" style="stroke:#038048;stroke-width:1;"/><text fill="#000000" font-family="sans-serif" font-size="14" lengthAdjust="spacing" textLength="117.9063" x="27" y="170.0732">class : ObjectId[]</text><line style="stroke:#181818;stroke-width:0.5;" x1="8" x2="436.9609" y1="177.375" y2="177.375"/><ellipse cx="18" cy="191.0234" fill="#84BE84" rx="3" ry="3" style="stroke:#038048;stroke-width:1;"/><text fill="#000000" font-family="sans-serif" font-size="14" lengthAdjust="spacing" textLength="404.9609" x="27" y="194.3701">comparePassword(password: string) : Promise&lt;Boolean&gt;</text></g><!--class class--><g id="elem_class"><rect codeLine="13" fill="#F1F1F1" height="145.7813" id="class" rx="2.5" ry="2.5" style="stroke:#181818;stroke-width:0.5;" width="179.1865" x="133" y="262"/><ellipse cx="199.9272" cy="278" fill="#ADD1B2" rx="11" ry="11" style="stroke:#181818;stroke-width:1;"/><path d="M204.0366,284 L196.3179,284 L196.3179,271.6094 L204.0366,271.6094 L204.0366,273.7656 L198.771,273.7656 L198.771,276.4375 L203.5366,276.4375 L203.5366,278.5938 L198.771,278.5938 L198.771,281.8438 L204.0366,281.8438 L204.0366,284 Z " fill="#000000"/><text fill="#000000" font-family="sans-serif" font-size="14" lengthAdjust="spacing" textLength="36.832" x="220.4272" y="282.8467">Class</text><line style="stroke:#181818;stroke-width:0.5;" x1="134" x2="311.1865" y1="294" y2="294"/><ellipse cx="144" cy="307.6484" fill="none" rx="3" ry="3" style="stroke:#038048;stroke-width:1;"/><text fill="#000000" font-family="sans-serif" font-size="14" lengthAdjust="spacing" textLength="92.0049" x="153" y="310.9951">_id : ObjectId</text><ellipse cx="144" cy="323.9453" fill="none" rx="3" ry="3" style="stroke:#038048;stroke-width:1;"/><text fill="#000000" font-family="sans-serif" font-size="14" lengthAdjust="spacing" textLength="118.9863" x="153" y="327.292">language : string</text><ellipse cx="144" cy="340.2422" fill="none" rx="3" ry="3" style="stroke:#038048;stroke-width:1;"/><text fill="#000000" font-family="sans-serif" font-size="14" lengthAdjust="spacing" textLength="125.8496" x="153" y="343.5889">teacher : ObjectId</text><ellipse cx="144" cy="356.5391" fill="none" rx="3" ry="3" style="stroke:#038048;stroke-width:1;"/><text fill="#000000" font-family="sans-serif" font-size="14" lengthAdjust="spacing" textLength="100.1123" x="153" y="359.8857">imgUrl : string</text><ellipse cx="144" cy="372.8359" fill="none" rx="3" ry="3" style="stroke:#038048;stroke-width:1;"/><text fill="#000000" font-family="sans-serif" font-size="14" lengthAdjust="spacing" textLength="143.9648" x="153" y="376.1826">students : ObjectId[]</text><ellipse cx="144" cy="389.1328" fill="none" rx="3" ry="3" style="stroke:#038048;stroke-width:1;"/><text fill="#000000" font-family="sans-serif" font-size="14" lengthAdjust="spacing" textLength="153.1865" x="153" y="392.4795">schedules : ObjectId[]</text><line style="stroke:#181818;stroke-width:0.5;" x1="134" x2="311.1865" y1="399.7813" y2="399.7813"/></g><!--class schedule--><g id="elem_schedule"><rect codeLine="22" fill="#F1F1F1" height="96.8906" id="schedule" rx="2.5" ry="2.5" style="stroke:#181818;stroke-width:0.5;" width="144.542" x="150" y="468"/><ellipse cx="186.694" cy="484" fill="#ADD1B2" rx="11" ry="11" style="stroke:#181818;stroke-width:1;"/><path d="M190.8034,490 L183.0847,490 L183.0847,477.6094 L190.8034,477.6094 L190.8034,479.7656 L185.5378,479.7656 L185.5378,482.4375 L190.3034,482.4375 L190.3034,484.5938 L185.5378,484.5938 L185.5378,487.8438 L190.8034,487.8438 L190.8034,490 Z " fill="#000000"/><text fill="#000000" font-family="sans-serif" font-size="14" lengthAdjust="spacing" textLength="64.333" x="205.5149" y="488.8467">Schedule</text><line style="stroke:#181818;stroke-width:0.5;" x1="151" x2="293.542" y1="500" y2="500"/><ellipse cx="161" cy="513.6484" fill="none" rx="3" ry="3" style="stroke:#038048;stroke-width:1;"/><text fill="#000000" font-family="sans-serif" font-size="14" lengthAdjust="spacing" textLength="92.0049" x="170" y="516.9951">_id : ObjectId</text><ellipse cx="161" cy="529.9453" fill="none" rx="3" ry="3" style="stroke:#038048;stroke-width:1;"/><text fill="#000000" font-family="sans-serif" font-size="14" lengthAdjust="spacing" textLength="79.5566" x="170" y="533.292">day : string</text><ellipse cx="161" cy="546.2422" fill="none" rx="3" ry="3" style="stroke:#038048;stroke-width:1;"/><text fill="#000000" font-family="sans-serif" font-size="14" lengthAdjust="spacing" textLength="118.542" x="170" y="549.5889">hours : number[]</text><line style="stroke:#181818;stroke-width:0.5;" x1="151" x2="293.542" y1="556.8906" y2="556.8906"/></g><!--link user to class--><g id="link_user_class"><path codeLine="28" d="M222.5,202.07 C222.5,222.05 222.5,242.76 222.5,261.69 " fill="none" id="user-class" style="stroke:#181818;stroke-width:1;"/><text fill="#000000" font-family="sans-serif" font-size="13" lengthAdjust="spacing" textLength="8.2393" x="214.2165" y="221.8699">n</text><text fill="#000000" font-family="sans-serif" font-size="13" lengthAdjust="spacing" textLength="8.2393" x="214.1088" y="250.8195">n</text></g><!--link class to schedule--><g id="link_class_schedule"><path codeLine="29" d="M222.5,408.23 C222.5,428.3 222.5,449.59 222.5,467.86 " fill="none" id="class-schedule" style="stroke:#181818;stroke-width:1;"/><text fill="#000000" font-family="sans-serif" font-size="13" lengthAdjust="spacing" textLength="8.271" x="214.1351" y="427.7554">1</text><text fill="#000000" font-family="sans-serif" font-size="13" lengthAdjust="spacing" textLength="8.2393" x="213.9865" y="457.0492">n</text></g><!--SRC=[TP5FImCn4CNl-HGX9qLwy2h5Wvu4eGNfIQHCDyCsaZzb9a6AzBjtDhiBZRMdXD_EU_FU1cDs-QZDXf6C1jP5BlfNQVsmTLO_wTNk6xlyPWSI8Q0WpkHYFm0kTCKmWFCDEG3pJoBRG9cAxn3x0dshf-HRq7dHNoJv_AeqXGCGhYVlktd9hBmNnPfIS8pBboIU49_LIIcS2hyEhhNnw7-ZilylOaRezlARsb4N-WsrpJaNAmklqxFeRV7uvyj5lezfeaQSns-bj71izkvJeS4wbh136ethmvfez69HZx6s6W_pQ2Oyhpe3]--></g></svg>